<?xml version="1.0" encoding="UTF-8" standalone="no"?>
<svg
   xmlns:dc="http://purl.org/dc/elements/1.1/"
   xmlns:cc="http://creativecommons.org/ns#"
   xmlns:rdf="http://www.w3.org/1999/02/22-rdf-syntax-ns#"
   xmlns:svg="http://www.w3.org/2000/svg"
   xmlns="http://www.w3.org/2000/svg"
   xmlns:sodipodi="http://sodipodi.sourceforge.net/DTD/sodipodi-0.dtd"
   xmlns:inkscape="http://www.inkscape.org/namespaces/inkscape"
   version="1.1"
   id="svg842"
   xml:space="preserve"
   width="192"
   height="139.2"
   viewBox="0 0 192 139.2"
   sodipodi:docname="logo.svg"
   inkscape:version="1.0.2 (e86c8708, 2021-01-15)"><metadata
     id="metadata848"><rdf:RDF><cc:Work
         rdf:about=""><dc:format>image/svg+xml</dc:format><dc:type
           rdf:resource="http://purl.org/dc/dcmitype/StillImage" /><dc:title></dc:title></cc:Work></rdf:RDF></metadata><defs
     id="defs846"><clipPath
       clipPathUnits="userSpaceOnUse"
       id="clipPath858"><path
         d="M 0,104.4 H 144 V 0 H 0 Z"
         id="path856" /></clipPath></defs><sodipodi:namedview
     pagecolor="#ffffff"
     bordercolor="#666666"
     borderopacity="1"
     objecttolerance="10"
     gridtolerance="10"
     guidetolerance="10"
     inkscape:pageopacity="0"
     inkscape:pageshadow="2"
     inkscape:window-width="1909"
     inkscape:window-height="1168"
     id="namedview844"
     showgrid="false"
     inkscape:zoom="3.5729167"
     inkscape:cx="96"
     inkscape:cy="69.599998"
     inkscape:window-x="0"
     inkscape:window-y="25"
     inkscape:window-maximized="0"
     inkscape:current-layer="g850" /><g
     id="g850"
     inkscape:groupmode="layer"
     inkscape:label="MNW.Logo.Vert.RGB"
     transform="matrix(1.3333333,0,0,-1.3333333,0,139.2)"><g
       id="g852"><g
         id="g854"
         clip-path="url(#clipPath858)"><g
           id="g860"
           transform="translate(70.8516,85.3691)"><path
             d="M 0,0 -5.391,4.422 -9.666,7.93 c -0.611,0.504 -1.611,0.504 -2.223,0.004 L -36.203,-12.01 c -0.104,-0.086 -0.184,-0.183 -0.252,-0.285 h 21.467 z"
             style="fill:#da8e6b;fill-opacity:1;fill-rule:nonzero;stroke:none"
             id="path862" /></g><g
           id="g864"
           transform="translate(107.3047,73.0742)"><path
             d="m 0,0 c -0.068,0.102 -0.148,0.199 -0.252,0.285 l -24.312,19.943 c -0.612,0.501 -1.612,0.501 -2.225,-0.003 L -29.354,18.121 -36.453,12.295 -21.467,0 Z"
             style="fill:#f3da9a;fill-opacity:1;fill-rule:nonzero;stroke:none"
             id="path866" /></g><g
           id="g868"
           transform="translate(85.8379,73.0742)"><path
             d="M 0,0 -14.986,12.295 -29.975,0 Z"
             style="fill:#916b5d;fill-opacity:1;fill-rule:nonzero;stroke:none"
             id="path870" /></g><g
           id="g872"
           transform="translate(55.8633,71.8242)"><path
             d="m 0,0 h -21.465 c 0.069,-0.102 0.149,-0.2 0.254,-0.287 l 12.154,-9.971 6.35,-5.209 5.805,-4.762 c 0.613,-0.5 1.611,-0.499 2.224,0.002 l 4.276,3.51 2.863,2.35 2.527,2.072 z"
             style="fill:#c0d1d6;fill-opacity:1;fill-rule:nonzero;stroke:none"
             id="path874" /></g><g
           id="g876"
           transform="translate(70.8516,59.5293)"><path
             d="m 0,0 2.863,-2.35 2.526,-2.072 4.275,-3.51 c 0.613,-0.501 1.613,-0.501 2.225,-0.002 l 12.154,9.971 12.152,9.971 c 0.106,0.087 0.186,0.185 0.256,0.287 H 14.984 Z"
             style="fill:#d0dce0;fill-opacity:1;fill-rule:nonzero;stroke:none"
             id="path878" /></g><g
           id="g880"
           transform="translate(55.8633,71.8242)"><path
             d="M 0,0 14.988,-12.295 29.973,0 Z"
             style="fill:#b0c5cc;fill-opacity:1;fill-rule:nonzero;stroke:none"
             id="path882" /></g><g
           id="g884"
           transform="translate(23.9082,38.7188)"><path
             d="M 0,0 C -2.537,0 -4.336,-1.881 -4.5,-1.99 -5.318,-0.682 -6.326,0 -8.207,0 c -2.592,0 -3.9,-1.607 -3.9,-1.607 l -0.272,0.953 c -0.055,0.273 -0.219,0.383 -0.492,0.383 h -0.436 c -0.328,0 -0.599,-0.301 -0.599,-0.6 V -12.27 c 0,-0.328 0.271,-0.599 0.599,-0.599 h 0.819 c 0.299,0 0.599,0.271 0.599,0.599 v 8.698 c 0,0 1.145,1.746 3.381,1.746 2.045,0 2.836,-1.391 2.836,-3.791 v -6.653 c 0,-0.328 0.299,-0.599 0.6,-0.599 h 0.818 c 0.326,0 0.6,0.271 0.6,0.599 v 6.653 c 0,0.654 -0.055,1.527 -0.164,2.072 0.464,0.383 1.609,1.719 3.654,1.719 1.908,0 2.672,-1.445 2.672,-3.791 v -6.653 c 0,-0.328 0.273,-0.599 0.599,-0.599 h 0.819 c 0.328,0 0.599,0.271 0.599,0.599 v 6.653 C 4.525,-2.371 3.654,0 0,0"
             style="fill:#916b5d;fill-opacity:1;fill-rule:nonzero;stroke:none"
             id="path886" /></g><g
           id="g888"
           transform="translate(37.2383,27.377)"><path
             d="m 0,0 c -2.48,0 -4.334,2.18 -4.334,4.799 0,2.562 1.854,4.717 4.334,4.717 2.482,0 4.309,-2.155 4.309,-4.717 C 4.309,2.18 2.482,0 0,0 m 6.326,4.799 c 0,3.545 -2.836,6.543 -6.326,6.543 -3.49,0 -6.326,-2.998 -6.326,-6.543 0,-3.6 2.836,-6.627 6.326,-6.627 3.49,0 6.326,3.027 6.326,6.627"
             style="fill:#916b5d;fill-opacity:1;fill-rule:nonzero;stroke:none"
             id="path890" /></g><g
           id="g892"
           transform="translate(56.9785,33.1016)"><path
             d="m 0,0 c 0,3.246 -0.9,5.617 -4.553,5.617 -2.619,0 -4.226,-1.607 -4.226,-1.607 l -0.274,0.953 c -0.054,0.273 -0.218,0.383 -0.49,0.383 H -9.98 c -0.327,0 -0.6,-0.301 -0.6,-0.6 V -6.652 c 0,-0.328 0.273,-0.6 0.6,-0.6 h 0.818 c 0.301,0 0.599,0.272 0.599,0.6 v 8.697 c 0,0 1.501,1.746 3.874,1.746 1.853,0 2.671,-1.117 2.671,-3.518 v -6.925 c 0,-0.328 0.274,-0.6 0.6,-0.6 H -0.6 c 0.299,0 0.6,0.272 0.6,0.6 z"
             style="fill:#916b5d;fill-opacity:1;fill-rule:nonzero;stroke:none"
             id="path894" /></g><g
           id="g896"
           transform="translate(67.8555,26.5586)"><path
             d="M 0,0 C 0.328,0.217 0.383,0.408 0.219,0.818 L -0.027,1.391 C -0.162,1.689 -0.326,1.936 -0.818,1.635 -1.336,1.309 -2.127,0.818 -3.299,0.818 c -0.709,0 -1.117,0.491 -1.117,1.799 v 7.526 h 3.707 c 0.355,0 0.627,0.273 0.627,0.599 v 0.547 c 0,0.354 -0.272,0.6 -0.627,0.6 h -3.707 v 3.545 c 0,0.326 -0.246,0.627 -0.574,0.599 l -0.844,-0.054 c -0.301,-0.028 -0.6,-0.274 -0.6,-0.6 v -3.49 h -1.664 c -0.382,0 -0.627,-0.246 -0.627,-0.6 v -0.547 c 0,-0.326 0.245,-0.599 0.627,-0.599 h 1.664 V 2.48 c 0,-1.962 0.491,-3.49 2.889,-3.49 1.691,0 3,0.627 3.545,1.01"
             style="fill:#916b5d;fill-opacity:1;fill-rule:nonzero;stroke:none"
             id="path898" /></g><g
           id="g900"
           transform="translate(75.9805,36.8926)"><path
             d="M 0,0 C 2.154,0 3.627,-1.746 3.682,-3.6 H -4.062 C -3.816,-1.637 -2.127,0 0,0 M 4.717,-9.025 4.391,-8.563 C 4.062,-8.072 3.873,-8.18 3.436,-8.48 2.727,-8.943 1.691,-9.516 0.027,-9.516 c -2.291,0 -4.062,2.207 -4.117,4.307 h 9.162 c 0.272,0 0.545,0.219 0.573,0.547 0.027,0.217 0.054,0.545 0.054,0.764 0,3.298 -2.4,5.724 -5.699,5.724 -3.816,0 -6.107,-3.025 -6.107,-6.57 0,-3.6 2.291,-6.6 6.107,-6.6 2.182,0 3.846,0.846 4.607,1.446 0.465,0.355 0.356,0.49 0.11,0.873"
             style="fill:#916b5d;fill-opacity:1;fill-rule:nonzero;stroke:none"
             id="path902" /></g><g
           id="g904"
           transform="translate(88.4395,33.2656)"><path
             d="m 0,0 c -1.525,0.709 -2.398,1.119 -2.398,2.236 0,0.6 0.462,1.391 1.853,1.391 1.172,0 2.045,-0.408 2.59,-0.736 0.273,-0.164 0.682,-0.137 0.873,0.218 l 0.273,0.518 c 0.192,0.353 0.137,0.627 -0.136,0.846 -0.6,0.435 -1.963,0.98 -3.6,0.98 -2.918,0 -3.898,-1.99 -3.898,-3.299 0,-2.154 1.908,-3.054 3.572,-3.871 1.826,-0.9 2.808,-1.39 2.808,-2.592 0,-0.98 -0.873,-1.58 -2.154,-1.58 -1.609,0 -2.699,0.789 -3.137,1.118 -0.353,0.246 -0.572,0.136 -0.736,-0.165 l -0.381,-0.709 c -0.109,-0.216 -0.054,-0.408 0.082,-0.544 0.655,-0.6 2.073,-1.528 4.172,-1.528 2.563,0 4.281,1.61 4.281,3.6 C 4.064,-1.826 2.182,-1.008 0,0"
             style="fill:#916b5d;fill-opacity:1;fill-rule:nonzero;stroke:none"
             id="path906" /></g><g
           id="g908"
           transform="translate(103.2988,29.1484)"><path
             d="m 0,0 c 0,2.291 -1.881,3.109 -4.062,4.117 -1.528,0.709 -2.401,1.119 -2.401,2.237 0,0.599 0.465,1.39 1.856,1.39 1.171,0 2.044,-0.408 2.589,-0.736 0.274,-0.164 0.682,-0.137 0.873,0.219 l 0.272,0.517 c 0.191,0.354 0.137,0.627 -0.137,0.846 -0.599,0.435 -1.963,0.98 -3.597,0.98 -2.918,0 -3.901,-1.99 -3.901,-3.299 0,-2.154 1.908,-3.054 3.572,-3.871 1.827,-0.9 2.809,-1.39 2.809,-2.591 0,-0.981 -0.873,-1.58 -2.154,-1.58 -1.61,0 -2.699,0.789 -3.135,1.117 -0.355,0.246 -0.574,0.136 -0.736,-0.164 L -8.535,-1.527 C -8.645,-1.744 -8.59,-1.936 -8.453,-2.072 -7.799,-2.672 -6.381,-3.6 -4.281,-3.6 -1.719,-3.6 0,-1.99 0,0"
             style="fill:#916b5d;fill-opacity:1;fill-rule:nonzero;stroke:none"
             id="path910" /></g><g
           id="g912"
           transform="translate(111.5879,27.377)"><path
             d="m 0,0 c -2.482,0 -4.336,2.18 -4.336,4.799 0,2.562 1.854,4.717 4.336,4.717 2.48,0 4.309,-2.155 4.309,-4.717 C 4.309,2.18 2.48,0 0,0 m 0,11.342 c -3.49,0 -6.326,-2.998 -6.326,-6.543 0,-3.6 2.836,-6.627 6.326,-6.627 3.49,0 6.326,3.027 6.326,6.627 0,3.545 -2.836,6.543 -6.326,6.543"
             style="fill:#916b5d;fill-opacity:1;fill-rule:nonzero;stroke:none"
             id="path914" /></g><g
           id="g916"
           transform="translate(126.2012,38.7188)"><path
             d="m 0,0 c -2.619,0 -3.873,-1.607 -3.873,-1.607 l -0.219,0.898 c -0.08,0.301 -0.299,0.438 -0.545,0.438 h -0.435 c -0.328,0 -0.6,-0.301 -0.6,-0.6 V -12.27 c 0,-0.328 0.272,-0.599 0.6,-0.599 h 0.818 c 0.299,0 0.6,0.271 0.6,0.599 v 8.725 c 0,0 0.98,1.609 3.408,1.609 0.6,0 1.062,-0.218 1.363,-0.353 0.301,-0.137 0.6,-0.109 0.737,0.299 l 0.353,0.982 C 2.508,-0.135 0.953,0 0,0"
             style="fill:#916b5d;fill-opacity:1;fill-rule:nonzero;stroke:none"
             id="path918" /></g><g
           id="g920"
           transform="translate(132.9609,38.4473)"><path
             d="m 0,0 h -0.818 c -0.327,0 -0.6,-0.301 -0.6,-0.6 v -11.398 c 0,-0.328 0.273,-0.6 0.6,-0.6 H 0 c 0.301,0 0.6,0.272 0.6,0.6 V -0.6 C 0.6,-0.301 0.301,0 0,0"
             style="fill:#916b5d;fill-opacity:1;fill-rule:nonzero;stroke:none"
             id="path922" /></g><g
           id="g924"
           transform="translate(132.498,44.6914)"><path
             d="M 0,0 C -0.818,0 -1.473,-0.654 -1.473,-1.527 -1.473,-2.318 -0.818,-3 0,-3 0.846,-3 1.5,-2.318 1.5,-1.527 1.5,-0.654 0.846,0 0,0"
             style="fill:#916b5d;fill-opacity:1;fill-rule:nonzero;stroke:none"
             id="path926" /></g><g
           id="g928"
           transform="translate(45.4434,17.8203)"><path
             d="m 0,0 h -0.92 c -0.109,0 -0.189,-0.09 -0.189,-0.189 v -4.127 h -0.01 L -5.277,0.1 h -0.25 c -0.1,0 -0.19,-0.079 -0.19,-0.18 v -6.727 c 0,-0.099 0.09,-0.189 0.19,-0.189 h 0.91 c 0.109,0 0.189,0.09 0.189,0.189 v 4.299 h 0.01 L -0.24,-7.096 H 0 c 0.1,0 0.189,0.08 0.189,0.18 v 6.727 C 0.189,-0.09 0.1,0 0,0"
             style="fill:#916b5d;fill-opacity:1;fill-rule:nonzero;stroke:none"
             id="path930" /></g><g
           id="g932"
           transform="translate(51.2441,12.0234)"><path
             d="m 0,0 c -1.26,0 -2.289,1.029 -2.289,2.289 0,1.26 1.029,2.309 2.289,2.309 1.26,0 2.299,-1.049 2.299,-2.309 C 2.299,1.029 1.26,0 0,0 m 0,5.896 c -1.998,0 -3.588,-1.607 -3.588,-3.607 0,-1.998 1.59,-3.588 3.588,-3.588 2,0 3.598,1.59 3.598,3.588 0,2 -1.598,3.607 -3.598,3.607"
             style="fill:#916b5d;fill-opacity:1;fill-rule:nonzero;stroke:none"
             id="path934" /></g><g
           id="g936"
           transform="translate(59.7949,14.6328)"><path
             d="M 0,0 H -1.629 V 1.988 H 0 C 0.529,1.988 0.988,1.549 0.988,1.02 0.988,0.459 0.529,0 0,0 m 2.289,1.039 c 0,1.19 -0.98,2.149 -2.18,2.149 h -2.857 c -0.111,0 -0.191,-0.09 -0.191,-0.19 v -6.617 c 0,-0.1 0.08,-0.19 0.191,-0.19 h 0.918 c 0.101,0 0.191,0.09 0.191,0.19 v 2.549 h 1.11 l 1.328,-2.649 c 0.019,-0.039 0.07,-0.09 0.16,-0.09 h 1.049 c 0.17,0 0.24,0.161 0.17,0.291 L 0.809,-0.98 c 0.871,0.351 1.48,1.099 1.48,2.019"
             style="fill:#916b5d;fill-opacity:1;fill-rule:nonzero;stroke:none"
             id="path938" /></g><g
           id="g940"
           transform="translate(67.9941,17.8203)"><path
             d="m 0,0 h -4.369 c -0.11,0 -0.19,-0.09 -0.19,-0.189 V -1.01 c 0,-0.099 0.08,-0.189 0.19,-0.189 h 1.529 v -5.608 c 0,-0.099 0.09,-0.189 0.192,-0.189 h 0.929 c 0.1,0 0.19,0.09 0.19,0.189 v 5.608 H 0 c 0.109,0 0.189,0.09 0.189,0.189 v 0.821 C 0.189,-0.09 0.109,0 0,0"
             style="fill:#916b5d;fill-opacity:1;fill-rule:nonzero;stroke:none"
             id="path942" /></g><g
           id="g944"
           transform="translate(75.6016,17.8203)"><path
             d="m 0,0 h -0.918 c -0.111,0 -0.191,-0.09 -0.191,-0.189 v -2.649 h -3.258 v 2.649 C -4.367,-0.09 -4.447,0 -4.557,0 h -0.929 c -0.1,0 -0.19,-0.09 -0.19,-0.189 v -6.618 c 0,-0.099 0.09,-0.189 0.19,-0.189 h 0.929 c 0.11,0 0.19,0.09 0.19,0.189 v 2.76 h 3.258 v -2.76 c 0,-0.099 0.08,-0.189 0.191,-0.189 H 0 c 0.102,0 0.191,0.09 0.191,0.189 v 6.618 C 0.191,-0.09 0.102,0 0,0"
             style="fill:#916b5d;fill-opacity:1;fill-rule:nonzero;stroke:none"
             id="path946" /></g><g
           id="g948"
           transform="translate(85.8926,17.8203)"><path
             d="M 0,0 H -0.92 C -1,0 -1.08,-0.07 -1.1,-0.139 L -2.119,-4.127 H -2.16 l -1.598,4.117 c -0.021,0.061 -0.07,0.11 -0.17,0.11 h -0.181 c -0.1,0 -0.149,-0.049 -0.17,-0.11 l -1.588,-4.117 h -0.041 l -1.039,3.988 C -6.967,-0.07 -7.047,0 -7.127,0 h -0.92 c -0.139,0 -0.219,-0.1 -0.18,-0.24 l 1.889,-6.715 c 0.022,-0.08 0.1,-0.141 0.18,-0.141 h 0.16 c 0.1,0 0.141,0.051 0.17,0.11 l 1.769,4.527 h 0.051 l 1.789,-4.527 c 0.02,-0.059 0.08,-0.11 0.17,-0.11 h 0.158 c 0.08,0 0.161,0.061 0.182,0.141 L 0.18,-0.24 C 0.219,-0.1 0.139,0 0,0"
             style="fill:#916b5d;fill-opacity:1;fill-rule:nonzero;stroke:none"
             id="path950" /></g><g
           id="g952"
           transform="translate(92.2031,17.8203)"><path
             d="m 0,0 h -4.066 c -0.112,0 -0.192,-0.09 -0.192,-0.189 v -6.618 c 0,-0.099 0.08,-0.189 0.192,-0.189 H 0 c 0.111,0 0.191,0.09 0.191,0.189 v 0.821 c 0,0.099 -0.08,0.189 -0.191,0.189 h -2.957 v 1.75 h 2.469 c 0.099,0 0.189,0.08 0.189,0.19 v 0.83 c 0,0.099 -0.09,0.189 -0.189,0.189 h -2.469 v 1.639 H 0 c 0.111,0 0.191,0.09 0.191,0.189 v 0.821 C 0.191,-0.09 0.111,0 0,0"
             style="fill:#916b5d;fill-opacity:1;fill-rule:nonzero;stroke:none"
             id="path954" /></g><g
           id="g956"
           transform="translate(96.5742,14.9629)"><path
             d="m 0,0 c -0.809,0.33 -1.178,0.648 -1.178,1.119 0,0.32 0.309,0.699 0.879,0.699 0.549,0 1.309,-0.5 1.389,-0.548 0.121,-0.081 0.269,0 0.349,0.119 l 0.381,0.57 c 0.071,0.1 0.039,0.27 -0.06,0.33 -0.199,0.149 -0.979,0.668 -1.998,0.668 -1.59,0 -2.25,-1.029 -2.25,-1.918 0,-1.18 0.939,-1.779 1.879,-2.158 0.839,-0.34 1.269,-0.69 1.269,-1.199 0,-0.43 -0.389,-0.77 -0.908,-0.77 -0.65,0 -1.461,0.588 -1.51,0.619 -0.09,0.071 -0.26,0.071 -0.34,-0.07 l -0.359,-0.619 c -0.09,-0.16 -0.041,-0.211 0.049,-0.301 0.201,-0.189 0.939,-0.779 2.199,-0.779 1.408,0 2.299,0.949 2.299,1.978 C 2.09,-0.971 0.971,-0.391 0,0"
             style="fill:#916b5d;fill-opacity:1;fill-rule:nonzero;stroke:none"
             id="path958" /></g><g
           id="g960"
           transform="translate(104.4238,17.8203)"><path
             d="m 0,0 h -4.367 c -0.11,0 -0.19,-0.09 -0.19,-0.189 V -1.01 c 0,-0.099 0.08,-0.189 0.19,-0.189 h 1.529 v -5.608 c 0,-0.099 0.09,-0.189 0.19,-0.189 h 0.929 c 0.1,0 0.19,0.09 0.19,0.189 v 5.608 H 0 c 0.109,0 0.189,0.09 0.189,0.189 v 0.821 C 0.189,-0.09 0.109,0 0,0"
             style="fill:#916b5d;fill-opacity:1;fill-rule:nonzero;stroke:none"
             id="path962" /></g></g></g></g></svg>
